<svg height="512" viewBox="0 0 64 64" width="512" xmlns="http://www.w3.org/2000/svg" xmlns:xlink="http://www.w3.org/1999/xlink"><linearGradient id="linear-gradient" gradientUnits="userSpaceOnUse" x1="-6.5" x2="58.508" y1="55.5" y2="-9.508"><stop offset="0" stop-color="#9f2fff"/><stop offset="1" stop-color="#0bb1d3"/><stop offset="0" stop-color="#006df0"/></linearGradient><linearGradient id="linear-gradient-2" x1="-12.5" x2="52.508" xlink:href="#linear-gradient" y1="49.5" y2="-15.508"/><linearGradient id="linear-gradient-3" x1="-4.25" x2="60.758" xlink:href="#linear-gradient" y1="57.75" y2="-7.258"/><linearGradient id="linear-gradient-4" x1="-.75" x2="64.258" xlink:href="#linear-gradient" y1="61.25" y2="-3.758"/><linearGradient id="linear-gradient-5" x1="-19.5" x2="45.508" xlink:href="#linear-gradient" y1="42.5" y2="-22.508"/><linearGradient id="linear-gradient-6" x1="4.129" x2="69.136" xlink:href="#linear-gradient" y1="66.129" y2="1.121"/><linearGradient id="linear-gradient-7" x1="4.5" x2="69.508" xlink:href="#linear-gradient" y1="66.5" y2="1.492"/><linearGradient id="linear-gradient-8" x1="9" x2="74.008" xlink:href="#linear-gradient" y1="71" y2="5.992"/><linearGradient id="linear-gradient-9" x1="8.5" x2="73.508" xlink:href="#linear-gradient" y1="70.5" y2="5.492"/><linearGradient id="linear-gradient-10" x1="-9" x2="56.008" xlink:href="#linear-gradient" y1="53" y2="-12.008"/><linearGradient id="linear-gradient-11" x1="-6.25" x2="58.758" xlink:href="#linear-gradient" y1="55.75" y2="-9.258"/><linearGradient id="linear-gradient-12" x1="7.75" x2="72.758" xlink:href="#linear-gradient" y1="69.75" y2="4.742"/><g id="Distillatory-6" data-name="Distillatory"><path d="m26 7h-3v-1a5.006 5.006 0 0 0 -5-5h-8a5.006 5.006 0 0 0 -5 5v1h-3a1 1 0 0 0 -1 1v54a1 1 0 0 0 1 1h3a1 1 0 0 0 1-1v-15.837l1.051 3.153a1 1 0 0 0 .949.684h2v5a1 1 0 0 0 1 1h6a1 1 0 0 0 1-1v-5h2a1 1 0 0 0 .949-.684l1.051-3.153v15.837a1 1 0 0 0 1 1h3a1 1 0 0 0 1-1v-54a1 1 0 0 0 -1-1zm-19-1a3 3 0 0 1 3-3h8a3 3 0 0 1 3 3v1h-14zm-4 3h22v33h-22zm1 52h-1v-17h1zm12-7h-4v-4h4zm3.279-6h-10.558l-1.334-4h13.226zm5.721 13h-1v-17h1z" fill="url(#linear-gradient)"/><path d="m6 27h16a1 1 0 0 0 1-1v-6a1 1 0 0 0 -1-1h-16a1 1 0 0 0 -1 1v6a1 1 0 0 0 1 1zm1-6h14v4h-14z" fill="url(#linear-gradient-2)"/><path d="m18 38h-7a1 1 0 0 0 0 2h7a1 1 0 0 0 0-2z" fill="url(#linear-gradient-3)"/><path d="m22 38h-1a1 1 0 0 0 0 2h1a1 1 0 0 0 0-2z" fill="url(#linear-gradient-4)"/><path d="m6 18h3a1 1 0 0 0 1-1v-3a1 1 0 0 0 -1-1h-3a1 1 0 0 0 -1 1v3a1 1 0 0 0 1 1zm1-3h1v1h-1z" fill="url(#linear-gradient-5)"/><path d="m53 12h-18a1 1 0 0 0 -1 1v26.515a1 1 0 0 0 .4.8l8.247 6.258a2 2 0 0 0 2.714 0l8.239-6.261a1 1 0 0 0 .4-.8v-26.512a1 1 0 0 0 -1-1zm-1 2v11a1 1 0 0 0 -.37.067c-.045.018-4.552 1.778-7.075.1-2.93-1.954-7.269-.678-8.555-.232v-10.935zm-7.9 31.011a.8.8 0 0 0 -.1.09.8.8 0 0 0 -.1-.09l-7.9-5.992v-12.019a1 1 0 0 0 .37-.067c.046-.017 4.555-1.776 7.075-.1a7.1 7.1 0 0 0 3.97 1.054 14.715 14.715 0 0 0 4.585-.823v11.955z" fill="url(#linear-gradient-6)"/><path d="m44 30a3 3 0 1 0 -3 3 3 3 0 0 0 3-3zm-4 0a1 1 0 1 1 1 1 1 1 0 0 1 -1-1z" fill="url(#linear-gradient-7)"/><circle cx="48" cy="32" fill="url(#linear-gradient-8)" r="2"/><path d="m42 34a3 3 0 1 0 3 3 3 3 0 0 0 -3-3zm0 4a1 1 0 1 1 1-1 1 1 0 0 1 -1 1z" fill="url(#linear-gradient-9)"/><path d="m37 10a1 1 0 0 0 -1-1h-4a1 1 0 0 0 0 2h4a1 1 0 0 0 1-1z" fill="url(#linear-gradient-10)"/><path d="m39 11h1a1 1 0 0 0 0-2h-1a1 1 0 0 0 0 2z" fill="url(#linear-gradient-11)"/><path d="m62 14h-2v-7a1 1 0 0 0 -1-1h-5a5.006 5.006 0 0 0 -5-5h-4a1 1 0 0 0 -1 1v4h-15a1 1 0 0 0 -1 1v35a1 1 0 0 0 .351.761l1.649 1.405v17.834a1 1 0 0 0 1 1h4a1 1 0 0 0 1-1v-12.718l5.878 5.011a2.986 2.986 0 0 0 2.122.879 2.924 2.924 0 0 0 2.063-.825l5.937-5.063v12.716a1 1 0 0 0 1 1h4a1 1 0 0 0 1-1v-17.833l1.649-1.406a1 1 0 0 0 .351-.761v-8h2a1 1 0 0 0 1-1v-18a1 1 0 0 0 -1-1zm-16-11h3a3 3 0 0 1 3 3h-6zm-12 58h-2v-15.128l2 1.7zm22 0h-2v-13.422l2-1.706zm2-19.461-13.293 11.34a1 1 0 0 1 -1.472-.054l-13.235-11.287v-33.538h28zm3-9.539h-1v-16h1z" fill="url(#linear-gradient-12)"/></g></svg>