<?xml version="1.0"?>
<svg xmlns="http://www.w3.org/2000/svg" xmlns:xlink="http://www.w3.org/1999/xlink" width="512" height="512" viewBox="0 0 512 512"><defs><linearGradient id="a" data-name="New Gradient Swatch 1" x1="15.522" y1="467.519" x2="537.754" y2="-54.714" gradientUnits="userSpaceOnUse"><stop offset="0" stop-color="#003f8a"/><stop offset="0.518" stop-color="#00d7df"/><stop offset="1" stop-color="#006df0"/></linearGradient><linearGradient id="b" x1="-9.999" y1="441.999" x2="512.234" y2="-80.234" xlink:href="#a"/><linearGradient id="c" x1="66.001" y1="517.998" x2="588.234" y2="-4.234" xlink:href="#a"/><linearGradient id="d" x1="18.001" y1="469.999" x2="540.234" y2="-52.234" xlink:href="#a"/><linearGradient id="e" x1="-57.999" y1="393.999" x2="464.234" y2="-128.234" xlink:href="#a"/><linearGradient id="f" x1="-139.999" y1="311.999" x2="382.234" y2="-210.234" xlink:href="#a"/><linearGradient id="g" x1="-127.999" y1="323.999" x2="394.234" y2="-198.234" xlink:href="#a"/><linearGradient id="h" x1="-115.999" y1="335.999" x2="406.234" y2="-186.234" xlink:href="#a"/><linearGradient id="i" x1="124.001" y1="575.999" x2="646.234" y2="53.766" xlink:href="#a"/><linearGradient id="j" x1="136.001" y1="587.999" x2="658.234" y2="65.766" xlink:href="#a"/><linearGradient id="k" x1="140.001" y1="591.999" x2="662.234" y2="69.766" xlink:href="#a"/><linearGradient id="l" x1="160.001" y1="611.999" x2="682.234" y2="89.766" xlink:href="#a"/></defs><g><path d="M472,56H40A32.036,32.036,0,0,0,8,88V360a32.036,32.036,0,0,0,32,32H196.18l-9.6,24H160a8,8,0,0,0-8,8v16H88a8,8,0,0,0,0,16H424a8,8,0,0,0,0-16H360V424a8,8,0,0,0-8-8H325.42l-9.6-24H472a32.036,32.036,0,0,0,32-32V88A32.036,32.036,0,0,0,472,56ZM344,432v8H168v-8ZM203.82,416l9.6-24h85.16l9.6,24ZM488,360a16.021,16.021,0,0,1-16,16H40a16.021,16.021,0,0,1-16-16v-8H488Zm0-24H24V88A16.021,16.021,0,0,1,40,72H472a16.021,16.021,0,0,1,16,16Z" fill="url(#a)"/><path d="M131.884,286.86l40,24a8,8,0,0,0,8.232,0l40-24A8,8,0,0,0,224,280V232a8,8,0,0,0-3.884-6.86l-40-24a8,8,0,0,0-8.232,0l-40,24A8,8,0,0,0,128,232v48A8,8,0,0,0,131.884,286.86ZM144,236.529l32-19.2,32,19.2v38.942l-32,19.2-32-19.2Z" fill="url(#b)"/><path d="M376,312H331.31L312.9,293.59l11.22-6.73A8,8,0,0,0,328,280V232a8,8,0,0,0-3.88-6.86l-40-24a8.015,8.015,0,0,0-8.24,0l-40,24A8,8,0,0,0,232,232v48a8,8,0,0,0,3.88,6.86l40,24a8.015,8.015,0,0,0,8.24,0l14.64-8.79,23.58,23.59A8.008,8.008,0,0,0,328,328h48a8,8,0,0,0,0-16Zm-64-36.53-10.76,6.46-15.58-15.59a8,8,0,0,0-11.32,11.32l12.76,12.75-7.1,4.26-32-19.2V236.53l32-19.2,32,19.2Z" fill="url(#c)"/><path d="M283.884,190.86l40,24a8,8,0,0,0,8.232,0l40-24A8,8,0,0,0,376,184V136a8,8,0,0,0-3.884-6.86l-40-24a8,8,0,0,0-8.232,0l-40,24A8,8,0,0,0,280,136v48A8,8,0,0,0,283.884,190.86ZM296,140.529l32-19.2,32,19.2v38.942l-32,19.2-32-19.2Z" fill="url(#d)"/><path d="M136,96h35.883l18.97,26.558-10.969,6.582A8,8,0,0,0,176,136v48a8,8,0,0,0,3.884,6.86l40,24a8,8,0,0,0,8.232,0l40-24A8,8,0,0,0,272,184V136a8,8,0,0,0-3.884-6.86l-40-24a8,8,0,0,0-8.232,0l-15.267,9.16L182.51,83.35A8,8,0,0,0,176,80H136a8,8,0,0,0,0,16Zm88,25.33,32,19.2v38.942l-32,19.2-32-19.2V140.529l8.183-4.909,9.307,13.03a8,8,0,1,0,13.02-9.3l-8.563-11.988Z" fill="url(#e)"/><path d="M56,96h56a8,8,0,0,0,0-16H56a8,8,0,0,0,0,16Z" fill="url(#f)"/><path d="M56,120h56a8,8,0,0,0,0-16H56a8,8,0,0,0,0,16Z" fill="url(#g)"/><path d="M56,144h56a8,8,0,0,0,0-16H56a8,8,0,0,0,0,16Z" fill="url(#h)"/><path d="M400,280h56a8,8,0,0,0,0-16H400a8,8,0,0,0,0,16Z" fill="url(#i)"/><path d="M400,304h56a8,8,0,0,0,0-16H400a8,8,0,0,0,0,16Z" fill="url(#j)"/><path d="M400,328h24a8,8,0,0,0,0-16H400a8,8,0,0,0,0,16Z" fill="url(#k)"/><path d="M456,312h-8a8,8,0,0,0,0,16h8a8,8,0,0,0,0-16Z" fill="url(#l)"/></g></svg>
