<svg id="Layer_5" enable-background="new 0 0 64 64" height="512" viewBox="0 0 64 64" width="512" xmlns="http://www.w3.org/2000/svg" xmlns:xlink="http://www.w3.org/1999/xlink"><linearGradient id="SVGID_1_" gradientUnits="userSpaceOnUse" x1="32" x2="32" y1="63" y2="1"><stop offset="0" stop-color="#9f2fff"/><stop offset="1" stop-color="#0bb1d3"/></linearGradient><path d="m59.565 40.729c-.431-2.161-2.344-3.729-4.549-3.729h-14.016v-4h11c2.757 0 5-2.243 5-5v-22c0-2.757-2.243-5-5-5h-40c-2.757 0-5 2.243-5 5v22c0 2.757 2.243 5 5 5h11v4h-14.016c-2.204 0-4.118 1.568-4.549 3.729l-3.345 16.72c-.06.298-.09.605-.09.911 0 2.559 2.082 4.64 4.64 4.64h52.72c2.558 0 4.64-2.081 4.64-4.64 0-.307-.03-.613-.09-.91zm-47.565-37.729h40c1.654 0 3 1.346 3 3v17h-46v-17c0-1.654 1.346-3 3-3zm-3 25v-3h46v3c0 1.654-1.346 3-3 3h-40c-1.654 0-3-1.346-3-3zm16 5h14v4h-14zm-18.604 8.122c.245-1.229 1.334-2.122 2.588-2.122h46.032c1.254 0 2.343.893 2.588 2.122l3.176 15.878h-57.56zm51.964 19.878h-52.72c-1.234 0-2.264-.855-2.552-2h57.825c-.288 1.145-1.319 2-2.553 2zm-48.36-6h22c1.103 0 2-.897 2-2v-10c0-1.103-.897-2-2-2h-22c-1.103 0-2 .897-2 2v10c0 1.103.897 2 2 2zm0-12h22l.001 10h-22.001zm46-2h-20v6h20zm-8 2h2v2h-2zm-2 2h-4v-2h4zm-8-2h2v2h-2zm16 2h-2v-2h2zm-2 7c0 1.654 1.346 3 3 3s3-1.346 3-3-1.346-3-3-3-3 1.346-3 3zm4 0c0 .552-.449 1-1 1s-1-.448-1-1 .449-1 1-1 1 .448 1 1zm-9-3c-1.654 0-3 1.346-3 3s1.346 3 3 3 3-1.346 3-3-1.346-3-3-3zm0 4c-.551 0-1-.448-1-1s.449-1 1-1 1 .448 1 1-.449 1-1 1zm-8 2c1.654 0 3-1.346 3-3s-1.346-3-3-3-3 1.346-3 3 1.346 3 3 3zm0-4c.551 0 1 .448 1 1s-.449 1-1 1-1-.448-1-1 .449-1 1-1zm-27-6h2v2h-2zm12 0h2v2h-2zm-8 0h2v2h-2zm12 0h2v2h-2zm-8 0h2v2h-2zm8 4h2v2h-2zm-4 0h2v2h-2zm-4 0h2v2h-2zm-8 0h2v2h-2zm4 0h2v2h-2zm3-22h2v2h-2zm-4 0h2v2h-2zm-4 0h2v2h-2zm22-22h-22v16h22zm-2 14h-18v-12h18zm22-14h-18v16h18zm-2 14h-14v-12h14zm-22-1h-14v-9h2v7h2v-5h2v5h2v-3h2v3h2v-5h2zm20-7h-10v-2h10zm0 4h-10v-2h10z" fill="url(#SVGID_1_)"/></svg>