<svg id="Layer_5" enable-background="new 0 0 64 64" height="512" viewBox="0 0 64 64" width="512" xmlns="http://www.w3.org/2000/svg" xmlns:xlink="http://www.w3.org/1999/xlink"><linearGradient id="SVGID_1_" gradientUnits="userSpaceOnUse" x1="32" x2="32" y1="53" y2="11"><stop offset="0" stop-color="#9f2fff"/><stop offset="1" stop-color="#0bb1d3"/></linearGradient><path d="m60 19h-1v-5c0-1.654-1.346-3-3-3h-52c-1.654 0-3 1.346-3 3v36c0 1.654 1.346 3 3 3h10c1.654 0 3-1.346 3-3v-2c0-1.654 1.346-3 3-3s3 1.346 3 3v2c0 1.654 1.346 3 3 3h30c1.654 0 3-1.346 3-3v-5h1c1.654 0 3-1.346 3-3v-20c0-1.654-1.346-3-3-3zm1 23c0 .551-.448 1-1 1h-3v7c0 .551-.448 1-1 1h-30c-.552 0-1-.449-1-1v-2c0-2.757-2.243-5-5-5s-5 2.243-5 5v2c0 .551-.448 1-1 1h-10c-.552 0-1-.449-1-1v-36c0-.551.448-1 1-1h52c.552 0 1 .449 1 1v7h3c.552 0 1 .449 1 1zm-56 7h8v-6h-8zm2-4h4v2h-4zm20 4h8v-6h-8zm2-4h4v2h-4zm8 4h8v-6h-8zm2-4h4v2h-4zm8 4h8v-6h-8zm2-4h4v2h-4zm-12-6v-4h2v4h2v-4h2v-2h4v-2h-4v-2h4v-2h-4v-2h4v-2h-4v-2h-2v-4h-2v4h-2v-4h-2v4h-2v-4h-2v4h-2v-4h-2v4h-2v2h-4v2h4v2h-4v2h4v2h-4v2h4v2h2v4h2v-4h2v4h2v-4h2v4zm-10-16h14v10h-14zm4 4h-2v-2h2zm2-2h6v2h-6zm-4 4h10v2h-10zm-22 12h2c1.103 0 2-.897 2-2v-22c0-1.103-.897-2-2-2h-2c-1.103 0-2 .897-2 2v22c0 1.103.897 2 2 2zm0-24h2l.001 22h-2.001zm10-2h-2c-1.103 0-2 .897-2 2v22c0 1.103.897 2 2 2h2c1.103 0 2-.897 2-2v-22c0-1.103-.897-2-2-2zm-2 24v-22h2l.001 22zm39-16c-1.654 0-3 1.346-3 3s1.346 3 3 3 3-1.346 3-3-1.346-3-3-3zm0 4c-.552 0-1-.449-1-1s.448-1 1-1 1 .449 1 1-.448 1-1 1zm0 6c-1.654 0-3 1.346-3 3s1.346 3 3 3 3-1.346 3-3-1.346-3-3-3zm0 4c-.552 0-1-.449-1-1s.448-1 1-1 1 .449 1 1-.448 1-1 1zm1-20h-2v-2h2zm-4 0h-2v-2h2zm-4 0h-2v-2h2z" fill="url(#SVGID_1_)"/></svg>