<svg id="Layer_5" enable-background="new 0 0 64 64" height="512" viewBox="0 0 64 64" width="512" xmlns="http://www.w3.org/2000/svg" xmlns:xlink="http://www.w3.org/1999/xlink"><linearGradient id="SVGID_1_" gradientUnits="userSpaceOnUse" x1="31.844" x2="31.844" y1="63" y2="1"><stop offset="0" stop-color="#9f2fff"/><stop offset="1" stop-color="#0bb1d3"/></linearGradient><path d="m59 1h-22c-2.206 0-4 1.794-4 4s1.794 4 4 4v24.382l-6-3v-16l-9.091-4.546c.058-.27.091-.549.091-.836 0-2.206-1.794-4-4-4s-4 1.794-4 4c0 .287.033.566.091.836l-8.091 4.046-4.418-2.209-.895 1.789 4.313 2.156v11.524c-1.72.447-3 1.999-3 3.858 0 2.206 1.794 4 4 4 1.2 0 2.266-.542 3-1.382l8 4v14.764l-11.447 5.723.895 1.789 11.552-5.776 11 5.5v3.378h2v-3.378l6.839-3.42c1.682 4.055 5.7 6.802 10.161 6.802 6.065 0 11-4.935 11-11v-43c2.206 0 4-1.794 4-4s-1.794-4-4-4zm-41 6c1.103 0 2 .897 2 2s-.897 2-2 2-2-.897-2-2 .897-2 2-2zm-12 26c-1.103 0-2-.897-2-2s.897-2 2-2 2 .897 2 2-.897 2-2 2zm1-5.858v-11.524l8-4c.734.84 1.8 1.382 3 1.382s2.266-.542 3-1.382l8 4v14.764l-11 5.5-8.091-4.045c.058-.271.091-.55.091-.837 0-1.859-1.28-3.411-3-3.858zm12 10.476 11-5.5 11 5.5v14.764l-11 5.5-11-5.5zm29 23.382c-3.699 0-7.029-2.306-8.371-5.696l3.371-1.686v-9.802c.314.112.648.184 1 .184 1.654 0 3-1.346 3-3s-1.346-3-3-3c-.352 0-.686.072-1 .184v-1.802l-4-2v-2.425c.124.061.237.114.363.176 3.515 1.722 7.89 3.867 11.637 3.867 1.89 0 4.316-.372 6-1.272v17.272c0 4.963-4.038 9-9 9zm-5-20c0-.552.449-1 1-1s1 .448 1 1-.449 1-1 1-1-.448-1-1zm1.511-8.674c1.769-1.213 4.056-2.326 6.489-2.326 3.231 0 6 1.1 6 2s-2.769 2-6 2c-1.973 0-4.258-.733-6.489-1.674zm12.489-3.054c-1.684-.9-4.11-1.272-6-1.272-3.412 0-6.481 1.757-8.591 3.384-.747-.352-1.475-.708-2.166-1.047-.433-.212-.836-.406-1.243-.602v-20.735h18zm2-22.272h-22c-1.103 0-2-.897-2-2s.897-2 2-2h22c1.103 0 2 .897 2 2s-.897 2-2 2zm-12 46c-1.654 0-3 1.346-3 3s1.346 3 3 3 3-1.346 3-3-1.346-3-3-3zm0 4c-.551 0-1-.448-1-1s.449-1 1-1 1 .448 1 1-.449 1-1 1zm5-14c-1.654 0-3 1.346-3 3s1.346 3 3 3 3-1.346 3-3-1.346-3-3-3zm0 4c-.551 0-1-.448-1-1s.449-1 1-1 1 .448 1 1-.449 1-1 1zm-15 .44c0-1.112-.286-2.214-.826-3.186l-3.814-6.867c-.476-.855-1.381-1.387-2.36-1.387s-1.884.532-2.36 1.388l-3.814 6.867c-.54.972-.826 2.073-.826 3.185 0 3.617 2.942 6.56 6.56 6.56h.881c3.617 0 6.559-2.942 6.559-6.56zm-12 0c0-.773.198-1.539.574-2.215l3.814-6.866c.247-.443.977-.443 1.224 0l3.814 6.866c.376.676.574 1.442.574 2.215 0 2.515-2.045 4.56-4.56 4.56h-.88c-2.515 0-4.56-2.045-4.56-4.56zm-10-6.44h-12v-2h12zm-12 2h12v2h-12zm0 4h12v2h-12zm8 6v-2h2v2zm-8-2h2v2h-2zm4 2v-2h2v2zm16-34h-2v-2h2zm-4 0h-2v-2h2zm-4 0h-2v-2h2zm-4 0h-2v-2h2zm16 0h-2v-2h2zm0 4h-18v-2h18zm0 4h-18v-2h18z" fill="url(#SVGID_1_)"/></svg>